<svg xmlns="http://www.w3.org/2000/svg"  viewBox="0 0 64 64" width="256px" height="256px" baseProfile="basic"><ellipse cx="32" cy="61" fill="#000003" opacity=".3" rx="20" ry="3"/><path fill="#fd3d4a" d="M39.713,15.422L39,11H25l-0.713,4.422c-0.189,1.04-0.601,2.027-1.207,2.892l-4.634,6.62	C17.505,26.279,17,27.88,17,29.522V49c0,3.314,2.686,6,6,6h18c3.314,0,6-2.686,6-6V29.522c0-1.641-0.505-3.243-1.446-4.588	l-4.634-6.62C40.314,17.448,39.902,16.462,39.713,15.422z"/><path fill="#fff" d="M25.948,14.219c-0.427-0.299-0.89-0.498-1.362-0.648l-0.299,1.851 c-0.189,1.04-0.601,2.027-1.207,2.892l-4.634,6.62C17.505,26.279,17,27.88,17,29.522V45c2.761,0,5-2.238,5-5V29.521 c0-0.619,0.188-1.214,0.542-1.721l4.634-6.619C28.76,18.92,28.21,15.802,25.948,14.219z" opacity=".3"/><path fill="#000003" d="M47,49V29.522c0-0.174-0.028-0.345-0.04-0.518C44.218,29.026,42,31.252,42,34v15 c0,0.552-0.449,1-1,1h-7c-2.761,0-5,2.238-5,5h12C44.314,55,47,52.314,47,49z" opacity=".15"/><path fill="#35cff1" d="M39,45H25c-1.657,0-3-1.343-3-3v-9c0-1.657,1.343-3,3-3h14c1.657,0,3,1.343,3,3v9	C42,43.657,40.657,45,39,45z"/><ellipse cx="32" cy="37.5" fill="#35cff1" rx="7" ry="10.5"/><rect width="14" height="4" x="25" y="7" fill="#0689ad"/><path fill="#35cff1" d="M39,8H25c-1.105,0-2-0.895-2-2v0c0-1.105,0.895-2,2-2h14c1.105,0,2,0.895,2,2v0	C41,7.105,40.105,8,39,8z"/><line x1="21.627" x2="25.819" y1="26.492" y2="20.504" fill="none" stroke="#fff" stroke-linecap="round" stroke-linejoin="round" stroke-miterlimit="10" stroke-width="3"/></svg>