<svg xmlns="http://www.w3.org/2000/svg"  viewBox="0 0 64 64" width="256px" height="256px" baseProfile="basic"><path fill="#68e5fd" d="M38,16l-5.921-1L26,16l0,4l-7.084,15.922C17.653,38.763,17,41.837,17,44.945V51c0,2.761,2.239,5,5,5	h20c2.761,0,5-2.239,5-5v-6.055c0-3.109-0.653-6.183-1.916-9.023L38,20V16z"/><rect width="12" height="5" x="26" y="11" fill="#cd2e42"/><ellipse cx="32" cy="61" opacity=".3" rx="20" ry="3"/><path fill="#fd3c4f" d="M40,12H24c-1.105,0-2-0.895-2-2V8c0-1.105,0.895-2,2-2h16c1.105,0,2,0.895,2,2v2	C42,11.105,41.105,12,40,12z"/><path fill="#9c34c2" d="M18.916,35.922C17.653,38.763,17,41.837,17,44.945V51c0,2.761,2.239,5,5,5h20c2.761,0,5-2.239,5-5	v-6.055c0-3.109-0.653-6.182-1.916-9.023L40.224,25H23.776L18.916,35.922z"/><ellipse cx="32" cy="40.5" fill="orange" rx="7" ry="5.5"/><path fill="#fff" d="M27.561,16.49c-0.509-0.227-1.036-0.338-1.561-0.388L26,20l-7.084,15.922 C17.653,38.763,17,41.837,17,44.945V51c0,0.696,0.143,1.358,0.4,1.96C19.971,52.752,22,50.625,22,48v-3.055 c0-2.424,0.5-4.776,1.485-6.991l6.612-14.863C31.22,20.568,30.084,17.612,27.561,16.49z" opacity=".3"/><path d="M47,51v-6.055c0-3.109-0.653-6.183-1.917-9.023l-4.847-10.896c-2.523,1.122-3.659,4.077-2.536,6.6 l2.815,6.329C41.494,40.157,42,42.539,42,44.948V49c0,1.105-0.895,2-2,2h-6c-2.761,0-5,2.238-5,5h13C44.761,56,47,53.761,47,51z" opacity=".15"/><line x1="27.823" x2="25.586" y1="24.515" y2="29.496" fill="none" stroke="#fff" stroke-linecap="round" stroke-miterlimit="10" stroke-width="3"/></svg>